#!OML:ASF F:\VICON\USERDATA\INSTALL\rory3\rory3.ASF
:FULLY-SPECIFIED
:DEGREES
172
root 13.3283 18.1096 3.83303 -3.38953 3.5579 0.799678
lowerback 10.8182 0.0470912 -0.631487
upperback 1.12114 0.0380734 0.939824
thorax -4.89771 0.0407283 1.33121
lowerneck -23.0283 -6.39204 -13.1939
upperneck 28.0275 -7.369 9.71817
head 14.3912 -3.28001 4.77838
rclavicle -1.78906e-015 -1.59028e-015
rhumerus -38.2626 -14.5822 -78.1884
rradius 28.9998
rwrist 7.65857
rhand -13.8279 10.5785
rfingers 7.12502
rthumb 12.2951 -19.0401
lclavicle -1.78906e-015 -1.59028e-015
lhumerus -34.1962 5.48026 82.7613
lradius 34.1973
lwrist -8.61961
lhand -15.4127 28.2879
lfingers 7.12502
lthumb 10.7667 57.9919
rfemur -11.3847 -4.31645 25.2629
rtibia 22.7537
rfoot -5.3235 -0.833631
rtoes 12.343
lfemur 0.990593 -0.993268 -19.6236
ltibia 46.4607
lfoot 15.8396 -17.1326
ltoes -1.26757
173
root 13.3231 18.1151 3.94035 -3.57256 3.25386 0.471802
lowerback 10.9989 0.145754 -0.213781
upperback 1.14558 0.222212 0.995992
thorax -4.9766 0.123912 1.12697
lowerneck -23.1224 -6.42551 -13.0954
upperneck 28.1211 -7.42353 9.63549
head 14.4515 -3.30227 4.71853
rclavicle -6.18717e-015 1.70955e-014
rhumerus -38.0256 -14.2617 -78.3665
rradius 29.1521
rwrist 7.44403
rhand -13.826 11.1163
rfingers 7.12502
rthumb 12.2969 -18.5021
lclavicle -6.18717e-015 1.70955e-014
lhumerus -34.3577 5.33714 82.7891
lradius 33.9843
lwrist -9.41952
lhand -16.8328 26.0152
lfingers 7.12502
lthumb 9.39665 55.7857
rfemur -10.7067 -4.3359 25.6648
rtibia 22.4242
rfoot -5.63934 -0.631061
rtoes 11.6661
lfemur 0.141352 -0.664546 -18.9873
ltibia 48.1425
lfoot 15.6155 -17.5758
ltoes -1.62244
174
root 13.3173 18.1193 4.04294 -3.73081 3.06836 0.259756
lowerback 11.099 0.236733 0.088195
upperback 1.24398 0.379906 1.00618
thorax -4.93075 0.195367 0.943225
lowerneck -23.1866 -6.48643 -13.0082
upperneck 28.1403 -7.51881 9.57208
head 14.4804 -3.34031 4.65736
rclavicle 3.32964e-015 -1.19271e-015
rhumerus -37.6893 -13.815 -78.6805
rradius 29.4493
rwrist 7.02012
rhand -14.1299 11.5446
rfingers 7.12502
rthumb 12.0039 -18.0912
lclavicle 3.32964e-015 -1.19271e-015
lhumerus -34.3046 5.12396 82.8973
lradius 33.6266
lwrist -9.75389
lhand -17.6921 24.7232
lfingers 7.12502
lthumb 8.56743 54.5293
rfemur -10.107 -4.45498 25.9271
rtibia 22.1036
rfoot -5.93605 -0.411205
rtoes 11.4108
lfemur -0.759737 -0.394342 -18.4898
ltibia 49.7381
lfoot 14.9711 -17.5608
ltoes -3.5292
175
root 13.3099 18.1271 4.143 -3.86626 2.91663 -0.0371049
lowerback 11.1135 0.286796 0.43259
upperback 1.3437 0.491414 1.08463
thorax -4.834 0.244221 0.813999
lowerneck -22.9905 -6.50342 -13.088
upperneck 27.9883 -7.53746 9.60252
head 14.3802 -3.35616 4.67514
rclavicle 7.7526e-015 1.35174e-014
rhumerus -37.2103 -13.5726 -78.8126
rradius 29.4453
rwrist 7.05775
rhand -14.3732 11.3949
rfingers 7.12502
rthumb 11.7692 -18.2545
lclavicle 7.7526e-015 1.35174e-014
lhumerus -34.2238 5.0999 83.0097
lradius 33.3154
lwrist -10.1212
lhand -20.6873 23.9752
lfingers 7.12502
lthumb 5.67626 53.8792
rfemur -9.5246 -4.46046 26.277
rtibia 21.8894
rfoot -6.19457 -0.329557
rtoes 12.1947
lfemur -1.72328 -0.126411 -17.8976
ltibia 51.2269
lfoot 14.1726 -16.9508
ltoes -4.38443
176
root 13.3023 18.1314 4.24327 -3.92754 2.80157 -0.255067
lowerback 11.055 0.317719 0.666423
upperback 1.42227 0.563315 1.16981
thorax -4.71867 0.276152 0.760525
lowerneck -22.8807 -6.512 -13.2284
upperneck 27.8884 -7.53969 9.71386
head 14.3264 -3.35915 4.74261
rclavicle -1.26725e-014 -3.73715e-014
rhumerus -36.7304 -13.7053 -78.7307
rradius 29.3334
rwrist 7.44555
rhand -14.3006 11.0508
rfingers 7.12502
rthumb 11.8393 -18.5945
lclavicle -1.26725e-014 -3.73715e-014
lhumerus -34.1752 5.17953 83.1098
lradius 32.994
lwrist -10.3744
lhand -27.5811 25.2255
lfingers 7.12502
lthumb -0.981286 55.203
rfemur -9.0171 -4.34779 26.5391
rtibia 21.7772
rfoot -6.51325 -0.378291
rtoes 13.1931
lfemur -2.69932 0.105617 -17.4073
ltibia 52.5812
lfoot 12.6261 -16.5482
ltoes -5.12206
177
root 13.2917 18.1216 4.33991 -4.04105 2.72053 -0.433431
lowerback 11.1504 0.344527 0.777788
upperback 1.46201 0.618381 1.27091
thorax -4.73064 0.302115 0.794671
lowerneck -22.8267 -6.5017 -13.3612
upperneck 27.8656 -7.5113 9.81294
head 14.3127 -3.3493 4.81266
rclavicle 2.38542e-015 1.78906e-014
rhumerus -36.4774 -13.6271 -78.6778
rradius 29.5519
rwrist 7.45837
rhand -14.2831 11.0954
rfingers 7.12502
rthumb 11.8561 -18.5489
lclavicle 2.38542e-015 1.78906e-014
lhumerus -34.1987 5.33945 83.2006
lradius 32.6328
lwrist -10.504
lhand -20.7022 24.183
lfingers 7.12502
lthumb 5.66183 54.0874
rfemur -8.54017 -4.36301 26.7818
rtibia 21.7175
rfoot -6.76147 -0.360373
rtoes 13.235
lfemur -3.5488 0.348458 -16.9306
ltibia 53.8023
lfoot 10.5487 -16.7594
ltoes -7.02165
178
root 13.283 18.1154 4.43568 -4.12305 2.53365 -0.534903
lowerback 11.2335 0.449484 0.858804
upperback 1.45048 0.770328 1.29615
thorax -4.78951 0.375664 0.751961
lowerneck -22.671 -6.49723 -13.3508
upperneck 27.8724 -7.53357 9.81899
head 14.2856 -3.36097 4.81036
rclavicle 1.66482e-015 -3.97569e-015
rhumerus -36.2729 -13.5629 -78.6518
rradius 29.672
rwrist 7.35585
rhand -14.2903 11.0194
rfingers 7.12502
rthumb 11.8492 -18.6254
lclavicle 1.66482e-015 -3.97569e-015
lhumerus -34.2518 5.39103 83.2434
lradius 32.284
lwrist -10.6111
lhand -19.0042 23.2384
lfingers 7.12502
lthumb 7.30105 53.0924
rfemur -8.11571 -4.32595 26.9396
rtibia 21.689
rfoot -7.02489 -0.280205
rtoes 12.2809
lfemur -4.44673 0.700659 -16.5636
ltibia 54.8938
lfoot 8.88878 -16.6189
ltoes -7.7974
179
root 13.28 18.1185 4.53446 -4.11489 2.25104 -0.491773
lowerback 11.1381 0.604427 0.870346
upperback 1.45892 0.973712 1.26246
thorax -4.72837 0.475646 0.680396
lowerneck -22.481 -6.51079 -13.2656
upperneck 27.8387 -7.57041 9.69968
head 14.2255 -3.38779 4.73771
rclavicle -1.21756e-015 5.1684e-015
rhumerus -35.9635 -13.8275 -78.5099
rradius 29.6271
rwrist 7.53635
rhand -14.2666 11.0436
rfingers 7.12502
rthumb 11.872 -18.5999
lclavicle -1.21756e-015 5.1684e-015
lhumerus -34.2277 5.49622 83.2621
lradius 31.8945
lwrist -10.6545
lhand -18.9452 23.2331
lfingers 7.12502
lthumb 7.35803 53.0852
rfemur -7.69487 -4.24463 26.9092
rtibia 21.5356
rfoot -7.28887 -0.122935
rtoes 11.5239
lfemur -5.4268 1.1146 -16.4434
ltibia 55.8607
lfoot 7.54672 -15.8034
ltoes -7.45083
180
root 13.274 18.1208 4.63062 -4.1475 2.03023 -0.552246
lowerback 11.0698 0.732174 0.929547
upperback 1.50543 1.14889 1.27378
thorax -4.64192 0.561424 0.633676
lowerneck -22.3373 -6.539 -13.1437
upperneck 27.8335 -7.62846 9.55092
head 14.1874 -3.42277 4.64324
rclavicle -1.04362e-015 -1.19271e-015
rhumerus -35.5991 -14.2332 -78.3244
rradius 29.5753
rwrist 7.86874
rhand -14.3417 11.1047
rfingers 7.12502
rthumb 11.7996 -18.5429
lclavicle -1.04362e-015 -1.19271e-015
lhumerus -34.1856 5.6924 83.2607
lradius 31.5163
lwrist -10.5956
lhand -18.8622 23.7273
lfingers 7.12502
lthumb 7.43815 53.5765
rfemur -7.167 -4.11476 27.0103
rtibia 21.2173
rfoot -7.35981 -0.120917
rtoes 11.5165
lfemur -6.31729 1.44634 -16.2098
ltibia 56.6822
lfoot 6.28174 -14.7109
ltoes -7.17953
181
root 13.2646 18.132 4.72363 -4.19462 1.86965 -0.788526
lowerback 11.1542 0.814915 1.11671
upperback 1.45049 1.28823 1.36017
thorax -4.74507 0.627069 0.596139
lowerneck -22.1125 -6.53942 -13.096
upperneck 27.8667 -7.6563 9.4762
head 14.1519 -3.44565 4.60135
rclavicle -3.42904e-015 6.36111e-015
rhumerus -35.3446 -14.4522 -78.1459
rradius 29.5944
rwrist 8.0463
rhand -14.2817 10.7983
rfingers 7.12502
rthumb 11.8575 -18.846
lclavicle -3.42904e-015 6.36111e-015
lhumerus -34.3684 5.81351 83.2926
lradius 31.2499
lwrist -10.3384
lhand -18.6637 24.4117
lfingers 7.12502
lthumb 7.62975 54.2541
rfemur -6.66003 -3.86319 27.3358
rtibia 20.9738
rfoot -7.38581 -0.380214
rtoes 12.4264
lfemur -7.32422 1.74528 -15.7483
ltibia 57.3665
lfoot 5.53476 -13.7491
ltoes -7.52083
182
root 13.2558 18.1462 4.8184 -4.21257 1.74174 -0.831888
lowerback 11.2314 0.877384 1.0836
upperback 1.36359 1.37323 1.41565
thorax -4.88153 0.669371 0.658148
lowerneck -21.8997 -6.48803 -13.1122
upperneck 27.8787 -7.60244 9.46831
head 14.1041 -3.43094 4.61405
rclavicle -1.44616e-014 -1.27222e-014
rhumerus -35.1902 -14.5261 -77.9949
rradius 29.7683
rwrist 8.02885
rhand -14.1981 10.5269
rfingers 7.12502
rthumb 11.9381 -19.1127
lclavicle -1.44616e-014 -1.27222e-014
lhumerus -34.5435 6.11728 83.2855
lradius 30.9301
lwrist -10.2069
lhand -17.9883 25.2951
lfingers 7.12502
lthumb 8.28158 55.1128
rfemur -6.26962 -3.60111 27.4334
rtibia 20.9467
rfoot -7.57154 -0.64072
rtoes 13.5034
lfemur -8.40964 1.981 -15.5399
ltibia 57.8852
lfoot 5.08419 -12.9591
ltoes -8.78996
183
root 13.2502 18.1315 4.90495 -4.29759 1.63358 -0.897105
lowerback 11.3457 0.948116 1.11818
upperback 1.36148 1.47512 1.44219
thorax -4.94771 0.718818 0.649003
lowerneck -21.8226 -6.52231 -13.0778
upperneck 27.928 -7.66564 9.42377
head 14.1144 -3.46278 4.57948
rclavicle 1.30701e-014 -2.8625e-014
rhumerus -34.9748 -14.7504 -77.8682
rradius 29.958
rwrist 7.96132
rhand -14.2689 10.5708
rfingers 7.12502
rthumb 11.8698 -19.0728
lclavicle 1.30701e-014 -2.8625e-014
lhumerus -34.5631 6.44045 83.2429
lradius 30.6102
lwrist -10.1124
lhand -17.8293 25.0035
lfingers 7.12502
lthumb 8.43505 54.815
rfemur -5.8963 -3.42426 27.543
rtibia 21.1074
rfoot -7.84996 -0.743637
rtoes 12.6496
lfemur -9.15862 2.1081 -15.3479
ltibia 58.2188
lfoot 3.88076 -12.1915
ltoes -9.84932
184
root 13.2468 18.1026 4.98891 -4.32778 1.49629 -1.03361
lowerback 11.2993 1.05138 1.26469
upperback 1.41764 1.62939 1.46812
thorax -4.86043 0.792807 0.571257
lowerneck -21.893 -6.60254 -12.954
upperneck 28.0928 -7.7758 9.25309
head 14.202 -3.51898 4.47017
rclavicle -1.06598e-014 -1.19271e-014
rhumerus -34.6912 -14.9564 -77.812
rradius 30.2061
rwrist 7.6017
rhand -14.4633 10.5307
rfingers 7.12502
rthumb 11.6823 -19.1236
lclavicle -1.06598e-014 -1.19271e-014
lhumerus -34.5346 6.52251 83.3022
lradius 30.3802
lwrist -9.73252
lhand -18.2923 24.5742
lfingers 7.12502
lthumb 7.98821 54.4033
rfemur -5.67898 -3.27068 27.7224
rtibia 21.5023
rfoot -8.19563 -0.782913
rtoes 11.6455
lfemur -9.82152 2.24022 -15.0961
ltibia 58.3686
lfoot 2.59016 -11.201
ltoes -9.4477
185
root 13.2459 18.089 5.08077 -4.29241 1.45375 -0.984201
lowerback 11.1202 1.11873 1.26731
upperback 1.46259 1.71212 1.4297
thorax -4.71266 0.834228 0.52108
lowerneck -21.9984 -6.61466 -12.8562
upperneck 28.2878 -7.80046 9.16332
head 14.3034 -3.5298 4.41715
rclavicle 7.00716e-015 -1.98785e-015
rhumerus -34.3788 -15.0833 -77.7819
rradius 30.4191
rwrist 7.06578
rhand -14.4016 10.1656
rfingers 7.12502
rthumb 11.7419 -19.4853
lclavicle 7.00716e-015 -1.98785e-015
lhumerus -34.5708 6.48997 83.3631
lradius 30.2653
lwrist -9.25027
lhand -18.4603 24.6674
lfingers 7.12502
lthumb 7.8261 54.5025
rfemur -5.60033 -3.29496 27.6745
rtibia 22.043
rfoot -8.7927 -0.809612
rtoes 11.7958
lfemur -10.6056 2.29828 -15.1009
ltibia 58.3312
lfoot 1.76223 -10.1688
ltoes -9.17718
